{
    "asset": {
        "version": "2.0",
        "generator": "Open Asset Import Library (assimp v5.0.cd42b995)"
    },
    "extensionsUsed": [
        "FB_ngon_encoding"
    ],
    "accessors": [
        {
            "bufferView": 0,
            "byteOffset": 0,
            "componentType": 5126,
            "count": 36,
            "type": "VEC3",
            "max": [
                -37.82160949707031,
                6.719898223876953,
                -18.360477447509767
            ],
            "min": [
                -38.06651306152344,
                6.135031700134277,
                -19.836219787597658
            ]
        },
        {
            "bufferView": 1,
            "byteOffset": 0,
            "componentType": 5126,
            "count": 36,
            "type": "VEC3",
            "max": [
                0.9906006455421448,
                0.9924752116203308,
                0.6860199570655823
            ],
            "min": [
                -0.9906007647514343,
                -0.9924752116203308,
                -0.9831463694572449
            ]
        },
        {
            "bufferView": 2,
            "byteOffset": 0,
            "componentType": 5126,
            "count": 36,
            "type": "VEC2",
            "max": [
                0.7834425568580627,
                1.0
            ],
            "min": [
                0.0,
                0.00146484375
            ]
        },
        {
            "bufferView": 3,
            "byteOffset": 0,
            "componentType": 5125,
            "count": 66,
            "type": "SCALAR",
            "max": [
                35
            ],
            "min": [
                0
            ]
        },
        {
            "bufferView": 4,
            "byteOffset": 0,
            "componentType": 5126,
            "count": 204,
            "type": "VEC3",
            "max": [
                -37.81181716918945,
                6.550015926361084,
                -19.08313751220703
            ],
            "min": [
                -37.94114303588867,
                4.979613780975342,
                -19.21246337890625
            ]
        },
        {
            "bufferView": 5,
            "byteOffset": 0,
            "componentType": 5126,
            "count": 204,
            "type": "VEC3",
            "max": [
                0.9843641519546509,
                0.0,
                0.9843641519546509
            ],
            "min": [
                -0.9843641519546509,
                0.0,
                -0.9843641519546509
            ]
        },
        {
            "bufferView": 6,
            "byteOffset": 0,
            "componentType": 5126,
            "count": 204,
            "type": "VEC2",
            "max": [
                1.0,
                1.0
            ],
            "min": [
                0.0,
                0.0
            ]
        },
        {
            "bufferView": 7,
            "byteOffset": 0,
            "componentType": 5125,
            "count": 1056,
            "type": "SCALAR",
            "max": [
                203
            ],
            "min": [
                0
            ]
        },
        {
            "bufferView": 8,
            "byteOffset": 0,
            "componentType": 5126,
            "count": 118,
            "type": "VEC3",
            "max": [
                -36.14873123168945,
                8.398658752441407,
                -20.531686782836915
            ],
            "min": [
                -42.78285217285156,
                8.009601593017579,
                -27.127849578857423
            ]
        },
        {
            "bufferView": 9,
            "byteOffset": 0,
            "componentType": 5126,
            "count": 118,
            "type": "VEC3",
            "max": [
                0.9986302256584168,
                1.0,
                0.9986302256584168
            ],
            "min": [
                -0.9890344142913818,
                -0.9996163845062256,
                -0.9986302256584168
            ]
        },
        {
            "bufferView": 10,
            "byteOffset": 0,
            "componentType": 5125,
            "count": 246,
            "type": "SCALAR",
            "max": [
                117
            ],
            "min": [
                0
            ]
        },
        {
            "bufferView": 11,
            "byteOffset": 0,
            "componentType": 5126,
            "count": 7,
            "type": "VEC3",
            "max": [
                -41.16525650024414,
                7.0452446937561039,
                -21.629079818725587
            ],
            "min": [
                -42.03839111328125,
                5.0,
                -22.790637969970704
            ]
        },
        {
            "bufferView": 12,
            "byteOffset": 0,
            "componentType": 5126,
            "count": 7,
            "type": "VEC3",
            "max": [
                -0.7993497252464294,
                1.37566748018513e-15,
                0.6008660793304443
            ],
            "min": [
                -0.7993497252464294,
                0.0,
                0.6008660197257996
            ]
        },
        {
            "bufferView": 13,
            "byteOffset": 0,
            "componentType": 5126,
            "count": 7,
            "type": "VEC2",
            "max": [
                1.0,
                0.9901307821273804
            ],
            "min": [
                0.0,
                0.0
            ]
        },
        {
            "bufferView": 14,
            "byteOffset": 0,
            "componentType": 5125,
            "count": 15,
            "type": "SCALAR",
            "max": [
                6
            ],
            "min": [
                0
            ]
        },
        {
            "bufferView": 15,
            "byteOffset": 0,
            "componentType": 5126,
            "count": 232,
            "type": "VEC3",
            "max": [
                -36.443939208984378,
                8.018567085266114,
                -20.82689666748047
            ],
            "min": [
                -42.449684143066409,
                5.0,
                -26.832639694213868
            ]
        },
        {
            "bufferView": 16,
            "byteOffset": 0,
            "componentType": 5126,
            "count": 232,
            "type": "VEC3",
            "max": [
                0.9984226226806641,
                0.05865180864930153,
                0.9984226226806641
            ],
            "min": [
                -0.9984226226806641,
                -1.0,
                -0.9984226226806641
            ]
        },
        {
            "bufferView": 17,
            "byteOffset": 0,
            "componentType": 5126,
            "count": 232,
            "type": "VEC2",
            "max": [
                0.99853515625,
                1.0
            ],
            "min": [
                0.0,
                0.0
            ]
        },
        {
            "bufferView": 18,
            "byteOffset": 0,
            "componentType": 5125,
            "count": 474,
            "type": "SCALAR",
            "max": [
                231
            ],
            "min": [
                0
            ]
        }
    ],
    "buffers": [
        {
            "byteLength": 25588,
            "uri": "result.bin"
        }
    ],
    "bufferViews": [
        {
            "buffer": 0,
            "byteOffset": 0,
            "byteLength": 432,
            "target": 34962
        },
        {
            "buffer": 0,
            "byteOffset": 432,
            "byteLength": 432,
            "target": 34962
        },
        {
            "buffer": 0,
            "byteOffset": 864,
            "byteLength": 288,
            "target": 34962
        },
        {
            "buffer": 0,
            "byteOffset": 1152,
            "byteLength": 264,
            "target": 34963
        },
        {
            "buffer": 0,
            "byteOffset": 1416,
            "byteLength": 2448,
            "target": 34962
        },
        {
            "buffer": 0,
            "byteOffset": 3864,
            "byteLength": 2448,
            "target": 34962
        },
        {
            "buffer": 0,
            "byteOffset": 6312,
            "byteLength": 1632,
            "target": 34962
        },
        {
            "buffer": 0,
            "byteOffset": 7944,
            "byteLength": 4224,
            "target": 34963
        },
        {
            "buffer": 0,
            "byteOffset": 12168,
            "byteLength": 1416,
            "target": 34962
        },
        {
            "buffer": 0,
            "byteOffset": 13584,
            "byteLength": 1416,
            "target": 34962
        },
        {
            "buffer": 0,
            "byteOffset": 15000,
            "byteLength": 984,
            "target": 34963
        },
        {
            "buffer": 0,
            "byteOffset": 15984,
            "byteLength": 84,
            "target": 34962
        },
        {
            "buffer": 0,
            "byteOffset": 16068,
            "byteLength": 84,
            "target": 34962
        },
        {
            "buffer": 0,
            "byteOffset": 16152,
            "byteLength": 56,
            "target": 34962
        },
        {
            "buffer": 0,
            "byteOffset": 16208,
            "byteLength": 60,
            "target": 34963
        },
        {
            "buffer": 0,
            "byteOffset": 16268,
            "byteLength": 2784,
            "target": 34962
        },
        {
            "buffer": 0,
            "byteOffset": 19052,
            "byteLength": 2784,
            "target": 34962
        },
        {
            "buffer": 0,
            "byteOffset": 21836,
            "byteLength": 1856,
            "target": 34962
        },
        {
            "buffer": 0,
            "byteOffset": 23692,
            "byteLength": 1896,
            "target": 34963
        }
    ],
    "materials": [
        {
            "name": "Plaster",
            "pbrMetallicRoughness": {
                "baseColorFactor": [
                    0.5215686559677124,
                    0.3137255012989044,
                    0.3137255012989044,
                    1.0
                ],
                "metallicFactor": 0.0,
                "roughnessFactor": 0.8585786819458008
            }
        },
        {
            "name": "po_Roof",
            "pbrMetallicRoughness": {
                "baseColorFactor": [
                    0.5568627715110779,
                    0.5568627715110779,
                    0.5568627715110779,
                    1.0
                ],
                "metallicFactor": 0.0,
                "roughnessFactor": 0.8585786819458008
            }
        },
        {
            "name": "p0_Wall",
            "pbrMetallicRoughness": {
                "baseColorFactor": [
                    0.8588235378265381,
                    0.6745098233222961,
                    0.34117648005485537,
                    1.0
                ],
                "metallicFactor": 0.0,
                "roughnessFactor": 0.8585786819458008
            }
        }
    ],
    "meshes": [
        {
            "name": "Object_1",
            "primitives": [
                {
                    "extensions": {
                        "FB_ngon_encoding": {}
                    },
                    "mode": 4,
                    "material": 0,
                    "indices": 3,
                    "attributes": {
                        "POSITION": 0,
                        "NORMAL": 1,
                        "TEXCOORD_0": 2
                    }
                }
            ]
        },
        {
            "name": "Object_2",
            "primitives": [
                {
                    "extensions": {
                        "FB_ngon_encoding": {}
                    },
                    "mode": 4,
                    "material": 0,
                    "indices": 7,
                    "attributes": {
                        "POSITION": 4,
                        "NORMAL": 5,
                        "TEXCOORD_0": 6
                    }
                }
            ]
        },
        {
            "name": "Object_3",
            "primitives": [
                {
                    "extensions": {
                        "FB_ngon_encoding": {}
                    },
                    "mode": 4,
                    "material": 1,
                    "indices": 10,
                    "attributes": {
                        "POSITION": 8,
                        "NORMAL": 9
                    }
                }
            ]
        },
        {
            "name": "Object_4",
            "primitives": [
                {
                    "mode": 4,
                    "material": 1,
                    "indices": 14,
                    "attributes": {
                        "POSITION": 11,
                        "NORMAL": 12,
                        "TEXCOORD_0": 13
                    }
                }
            ]
        },
        {
            "name": "Object_5",
            "primitives": [
                {
                    "extensions": {
                        "FB_ngon_encoding": {}
                    },
                    "mode": 4,
                    "material": 2,
                    "indices": 18,
                    "attributes": {
                        "POSITION": 15,
                        "NORMAL": 16,
                        "TEXCOORD_0": 17
                    }
                }
            ]
        }
    ],
    "nodes": [
        {
            "name": "RootNode",
            "children": [
                1,
                8,
                9,
                10,
                11
            ]
        },
        {
            "name": "Mesh",
            "children": [
                2
            ]
        },
        {
            "name": "p",
            "children": [
                3,
                4,
                5,
                6,
                7
            ]
        },
        {
            "name": "Object_1",
            "mesh": 0
        },
        {
            "name": "Object_2",
            "mesh": 1
        },
        {
            "name": "Object_3",
            "mesh": 2
        },
        {
            "name": "Object_4",
            "mesh": 3
        },
        {
            "name": "Object_5",
            "mesh": 4
        },
        {
            "name": "Perspective",
            "matrix": [
                0.8407000303268433,
                0.14218276739120484,
                -0.5225012302398682,
                0.0,
                -0.14218276739120484,
                0.9890172481536865,
                0.040360014885663989,
                0.0,
                0.5225012302398682,
                0.04036000370979309,
                0.8516827821731567,
                0.0,
                -160.38870239257813,
                -3.124861717224121,
                93.1404800415039,
                1.0
            ]
        },
        {
            "name": "Top",
            "matrix": [
                -4.371138828673793e-8,
                0.0,
                -1.0,
                0.0,
                0.0,
                1.0,
                0.0,
                0.0,
                1.0,
                0.0,
                -4.371138828673793e-8,
                0.0,
                -15.040796279907227,
                18.11565589904785,
                80.2123031616211,
                1.0
            ]
        },
        {
            "name": "Front",
            "matrix": [
                -4.371138828673793e-8,
                1.0,
                0.0,
                0.0,
                -1.0,
                -4.371138828673793e-8,
                0.0,
                0.0,
                0.0,
                0.0,
                1.0,
                0.0,
                0.0,
                -80.2123031616211,
                0.0,
                1.0
            ]
        },
        {
            "name": "Right",
            "matrix": [
                1.0,
                0.0,
                0.0,
                0.0,
                0.0,
                -1.0,
                -8.742277657347586e-8,
                0.0,
                0.0,
                8.742277657347586e-8,
                -1.0,
                0.0,
                80.2123031616211,
                0.0,
                0.0,
                1.0
            ]
        }
    ],
    "scenes": [
        {
            "nodes": [
                0
            ]
        }
    ],
    "scene": 0
}